<?xml version="1.0" standalone="no"?>
<!DOCTYPE svg PUBLIC "-//W3C//DTD SVG 20010904//EN"
 "http://www.w3.org/TR/2001/REC-SVG-20010904/DTD/svg10.dtd">
<svg version="1.0" xmlns="http://www.w3.org/2000/svg"
 width="700.000000pt" height="700.000000pt" viewBox="0 0 700.000000 700.000000"
 preserveAspectRatio="xMidYMid meet">
<metadata>
Created by potrace 1.14, written by Peter Selinger 2001-2017
</metadata>
<g transform="translate(0.000000,700.000000) scale(0.100000,-0.100000)"
fill="#000000" stroke="none">
<path d="M4920 6799 c-531 -51 -991 -356 -1237 -819 -129 -242 -188 -497 -179
-779 8 -255 60 -441 204 -723 2 -5 -179 -8 -402 -8 l-406 0 7 47 c16 116 6
320 -22 440 -74 323 -253 601 -515 799 -84 64 -282 169 -370 198 -159 52 -275
70 -445 70 -224 1 -411 -43 -610 -142 -60 -30 -184 -107 -232 -145 -46 -36
-214 -210 -249 -257 -367 -500 -357 -1172 25 -1655 108 -136 261 -266 408
-347 40 -22 73 -43 74 -46 0 -4 0 -485 1 -1069 0 -1121 1 -1135 46 -1264 99
-280 372 -490 665 -512 32 -2 59 -6 61 -8 2 -2 7 -22 10 -43 11 -66 18 -89 45
-140 29 -54 111 -134 164 -159 90 -43 84 -43 1264 -42 1103 1 1129 2 1178 21
77 31 131 69 174 124 44 56 80 143 84 201 1 21 7 39 12 40 6 1 30 3 55 5 37 3
97 12 120 19 3 1 25 7 50 14 51 15 172 74 213 105 71 52 152 136 195 201 62
93 86 146 113 252 21 82 22 109 23 423 0 184 4 337 8 340 3 3 58 5 120 5 l113
0 88 -55 c48 -30 100 -62 115 -71 15 -9 187 -116 383 -237 l356 -222 89 3 89
2 0 1068 1 1067 -89 0 c-86 0 -92 -2 -151 -37 -33 -21 -69 -42 -78 -48 -9 -5
-63 -39 -120 -75 -57 -36 -112 -70 -123 -76 -11 -6 -51 -31 -90 -56 -38 -24
-160 -100 -270 -168 l-199 -124 -118 0 c-65 -1 -119 1 -119 4 -1 3 -2 191 -3
418 -1 329 1 412 11 412 50 0 269 92 394 166 387 228 659 626 738 1079 16 87
19 145 16 280 -2 94 -6 184 -9 200 -4 17 -11 55 -17 85 -73 389 -336 775 -679
996 -245 158 -523 243 -815 248 -55 1 -129 -2 -165 -5z m261 -446 l36 -5 -110
-329 c-103 -311 -111 -329 -136 -335 -49 -10 -133 -44 -158 -64 l-25 -19 -309
155 c-359 179 -336 148 -205 279 150 150 365 267 550 301 17 3 49 9 71 13 44
9 229 11 286 4z m490 -179 c96 -63 214 -177 281 -270 53 -74 138 -230 138
-254 0 -5 4 -18 9 -28 30 -54 81 -328 65 -353 -2 -4 -23 -3 -46 1 -24 5 -61
11 -83 14 -22 4 -80 13 -130 22 -49 8 -101 17 -115 19 -14 2 -65 11 -115 19
-49 9 -108 18 -130 21 -60 9 -62 10 -84 61 -12 26 -37 69 -57 97 l-36 50 108
323 c59 178 112 324 117 324 5 0 40 -21 78 -46z m-4006 -609 c43 -5 164 -34
173 -41 4 -3 -217 -374 -232 -391 -6 -6 -36 -13 -66 -14 -63 -3 -177 -34 -201
-55 -8 -8 -22 -14 -30 -14 -8 0 -104 54 -213 120 l-199 119 49 46 c192 179
458 264 719 230z m2638 -156 c166 -83 303 -152 303 -153 1 0 5 -23 8 -49 4
-27 14 -70 23 -95 16 -48 78 -147 107 -171 9 -8 14 -21 11 -32 -3 -9 -8 -26
-10 -36 -4 -20 -90 -318 -106 -370 l-11 -33 -180 0 -181 0 -25 27 c-130 140
-243 360 -277 538 -23 125 -24 358 -1 425 3 8 10 34 16 58 6 23 13 42 15 42 3
0 141 -68 308 -151z m-2071 -141 c72 -87 96 -123 137 -205 80 -162 107 -318
86 -503 -11 -97 14 -88 -250 -88 -129 0 -235 3 -235 8 0 4 7 27 16 51 11 29
17 77 17 139 1 86 -2 102 -33 174 -24 57 -30 83 -23 95 180 303 229 381 234
381 4 0 26 -24 51 -52z m3318 -298 c36 -5 76 -12 90 -15 14 -3 45 -8 70 -11
25 -3 52 -7 60 -9 16 -5 54 -11 200 -35 87 -14 124 -21 127 -24 6 -5 -41 -111
-76 -171 -112 -195 -275 -347 -478 -449 -39 -20 -78 -36 -86 -36 -7 0 -17 -3
-21 -7 -9 -9 -116 -43 -136 -43 -8 0 -49 33 -91 74 -42 40 -104 90 -137 111
-33 20 -59 42 -57 48 2 7 29 99 60 206 31 107 58 198 60 202 3 4 17 10 32 14
60 14 138 61 187 111 57 58 49 57 196 34z m-4605 -164 l157 -94 3 -68 c6 -114
60 -232 138 -301 l34 -30 -63 -63 c-74 -72 -141 -169 -177 -255 l-25 -59 -93
94 c-182 184 -267 386 -267 636 0 89 25 244 44 276 6 10 12 6 249 -136z"/>
</g>
</svg>
